<?xml version="1.0" encoding="UTF-8" standalone="no"?>
<!DOCTYPE svg PUBLIC "-//W3C//DTD SVG 1.1//EN" "http://www.w3.org/Graphics/SVG/1.1/DTD/svg11.dtd">
<svg width="100%" height="100%" viewBox="0 0 828 315" version="1.1" xmlns="http://www.w3.org/2000/svg" xmlns:xlink="http://www.w3.org/1999/xlink" xml:space="preserve" xmlns:serif="http://www.serif.com/" style="fill-rule:evenodd;clip-rule:evenodd;stroke-linejoin:round;stroke-miterlimit:1.41421;">
    <rect id="Artboard1" x="0" y="0" width="828" height="315" style="fill:none;"/>
    <clipPath id="_clip1">
        <rect id="Artboard11" serif:id="Artboard1" x="0" y="0" width="828" height="315"/>
    </clipPath>
    <g clip-path="url(#_clip1)">
        <g>
            <rect x="0" y="0.001" width="828" height="314.999" style="fill:rgb(255,215,0);fill-rule:nonzero;"/>
            <path d="M118.462,170.216L-653.406,942.084L-267.472,1328.02L504.394,556.148L118.462,170.216Z" style="fill:white;fill-rule:nonzero;"/>
            <path d="M118.462,-601.652L-267.472,-215.716L504.394,556.148L890.328,170.216L118.462,-601.652Z" style="fill:rgb(107,17,255);fill-rule:nonzero;"/>
            <path d="M362.253,118.675L351.306,129.622L337.922,116.238L331.662,122.499L362.964,153.801L369.225,147.54L357.297,135.612L368.243,124.666L380.171,136.593L386.432,130.333L355.13,99.031L348.869,105.292L362.253,118.675Z" style="fill:white;fill-rule:nonzero;"/>
            <path d="M422.373,94.393L428.903,87.862L397.601,56.56L391.071,63.09L422.373,94.393Z" style="fill:white;fill-rule:nonzero;"/>
            <path d="M410.883,43.278L404.622,49.539L435.924,80.841L449.486,67.279L445.358,59.426L436.194,68.59L410.883,43.278Z" style="fill:white;fill-rule:nonzero;"/>
            <path d="M430.527,23.634L424.267,29.894L455.569,61.196L469.131,47.635L465.003,39.781L455.839,48.945L430.527,23.634Z" style="fill:white;fill-rule:nonzero;"/>
            <path d="M475.483,29.301L469.276,23.094L479.443,12.928L473.452,6.937L463.286,17.103L456.162,9.98L469.205,-3.063L461.352,-7.191L443.911,10.25L475.213,41.552L492.908,23.858L488.78,16.004L475.483,29.301Z" style="fill:white;fill-rule:nonzero;"/>
            <path d="M394.747,102.284L366.292,87.869L359.701,94.461L402.35,115.834L408.297,109.888L386.922,67.239L380.33,73.831L394.747,102.284Z" style="fill:white;fill-rule:nonzero;"/>
            <path d="M284.435,208.411L252.873,201.288L247.501,206.66L278.803,237.962L285.064,231.701L265.721,212.359L297.283,219.482L302.655,214.11L271.353,182.808L265.092,189.068L284.435,208.411Z" style="fill:white;fill-rule:nonzero;"/>
            <path d="M330.569,148.908L325.318,154.159C323.562,155.916 320.565,155.779 318.808,154.021C317.051,152.264 316.916,149.271 318.673,147.514L331.283,134.904L323.43,130.776L312.682,141.523C307.474,146.732 307.339,155.072 312.547,160.281C317.756,165.49 326.095,165.354 331.304,160.145L336.555,154.894C338.312,153.137 341.308,153.275 343.065,155.031C344.822,156.787 344.957,159.782 343.2,161.539L329.586,175.153L337.44,179.28L349.19,167.529C354.399,162.32 354.534,153.98 349.326,148.771C344.117,143.562 335.778,143.699 330.569,148.908Z" style="fill:white;fill-rule:nonzero;"/>
            <path d="M435.993,108.814L410.396,134.411L435.87,159.885L415.471,180.284L399.794,164.608L389.996,154.81L364.399,180.408L443.45,259.46L453.248,249.661L469.047,233.861L443.573,208.387L463.973,187.988L489.446,213.462L499.245,203.664L515.044,187.864L445.791,118.612L435.993,108.814Z" style="fill:white;fill-rule:nonzero;"/>
            <path d="M538.167,123.176L540.936,120.407C557.001,104.343 557,78.204 540.935,62.14C535.409,56.613 528.69,52.988 521.599,51.264C508.078,47.976 493.205,51.601 482.667,62.139L482.668,62.139L454.302,90.506L533.352,169.556L543.15,159.758L546.18,156.729L558.95,143.959L538.167,123.176Z" style="fill:white;fill-rule:nonzero;"/>
            <path d="M379.459,281.884C395.524,265.82 395.523,239.681 379.458,223.616C373.932,218.09 367.213,214.465 360.122,212.74C346.601,209.453 331.728,213.078 321.19,223.615L321.191,223.616L292.824,251.982L371.875,331.033L381.673,321.235L384.703,318.206L397.472,305.436L376.69,284.654L379.459,281.884Z" style="fill:white;fill-rule:nonzero;"/>
            <path d="M445.791,118.612L429.992,134.411L455.466,159.885L435.067,180.284L415.471,180.284L399.794,164.609L383.995,180.408L453.248,249.661L469.047,233.861L443.573,208.387L463.973,187.988L483.569,187.988L499.245,203.664L515.044,187.864L445.791,118.612Z" style="fill:rgb(255,215,0);fill-rule:nonzero;"/>
            <path d="M558.95,143.959L538.167,123.176L540.936,120.407C557.001,104.343 557,78.204 540.935,62.14C535.409,56.613 528.69,52.988 521.599,51.264C514.508,52.988 507.79,56.613 502.264,62.139L473.898,90.506L543.15,159.758L546.18,156.729L558.95,143.959Z" style="fill:rgb(255,215,0);fill-rule:nonzero;"/>
            <path d="M397.472,305.436L376.69,284.654L379.459,281.884C395.524,265.82 395.523,239.681 379.458,223.616C373.932,218.09 367.212,214.465 360.121,212.74C353.031,214.465 346.313,218.09 340.786,223.616L340.787,223.616L312.421,251.982L381.673,321.235L384.703,318.206L397.472,305.436Z" style="fill:rgb(255,215,0);fill-rule:nonzero;"/>
            <path d="M333.344,183.421L290.694,162.047L284.748,167.993L306.123,210.642L312.715,204.05L298.298,175.597L313.561,183.329L310.136,186.754L313.807,194.279L320.992,187.094L326.752,190.013L333.344,183.421Z" style="fill:white;fill-rule:nonzero;"/>
        </g>
    </g>
</svg>
