<?xml version="1.0" encoding="UTF-8" standalone="no"?>
<!DOCTYPE svg PUBLIC "-//W3C//DTD SVG 1.1//EN" "http://www.w3.org/Graphics/SVG/1.1/DTD/svg11.dtd">
<svg width="100%" height="100%" viewBox="0 0 567 567" version="1.1" xmlns="http://www.w3.org/2000/svg" xmlns:xlink="http://www.w3.org/1999/xlink" xml:space="preserve" xmlns:serif="http://www.serif.com/" style="fill-rule:evenodd;clip-rule:evenodd;stroke-linejoin:round;stroke-miterlimit:1.41421;">
    <rect id="Artboard1" x="0" y="0" width="567" height="567" style="fill:none;"/>
    <clipPath id="_clip1">
        <rect id="Artboard11" serif:id="Artboard1" x="0" y="0" width="567" height="567"/>
    </clipPath>
    <g clip-path="url(#_clip1)">
        <g>
            <rect x="0" y="0.065" width="566.929" height="566.929" style="fill:rgb(107,17,255);fill-rule:nonzero;"/>
            <path d="M267.814,190.162L246.718,190.162L246.718,164.37L234.652,164.37L234.652,224.695L246.718,224.695L246.718,201.709L267.814,201.709L267.814,224.695L279.877,224.695L279.877,164.37L267.814,164.37L267.814,190.162Z" style="fill:white;fill-rule:nonzero;"/>
            <rect x="349.143" y="164.37" width="12.586" height="60.325" style="fill:white;fill-rule:nonzero;"/>
            <path d="M387.323,164.37L375.26,164.37L375.26,224.695L401.392,224.695L404.983,213.148L387.323,213.148L387.323,164.37Z" style="fill:white;fill-rule:nonzero;"/>
            <path d="M425.181,164.37L413.115,164.37L413.115,224.695L439.25,224.695L442.841,213.148L425.181,213.148L425.181,164.37Z" style="fill:white;fill-rule:nonzero;"/>
            <path d="M463.036,213.148L463.036,201.189L482.63,201.189L482.63,189.643L463.036,189.643L463.036,175.917L488.173,175.917L484.583,164.37L450.973,164.37L450.973,224.695L485.074,224.695L488.661,213.148L463.036,213.148Z" style="fill:white;fill-rule:nonzero;"/>
            <path d="M314.917,205.68L301.389,164.37L288.687,164.37L309.187,226.062L320.649,226.062L341.146,164.37L328.444,164.37L314.917,205.68Z" style="fill:white;fill-rule:nonzero;"/>
            <path d="M106.365,201.646L82.816,164.37L72.466,164.37L72.466,224.695L84.529,224.695L84.529,187.419L108.079,224.695L118.431,224.695L118.431,164.37L106.365,164.37L106.365,201.646Z" style="fill:white;fill-rule:nonzero;"/>
            <path d="M208.154,188.767L198.035,188.767C194.649,188.767 191.893,185.747 191.893,182.361C191.893,178.975 194.649,175.958 198.035,175.958L222.334,175.958L218.746,164.414L198.035,164.414C187.997,164.414 179.83,172.323 179.83,182.361C179.83,192.399 187.997,200.301 198.035,200.301L208.154,200.301C211.54,200.301 214.293,203.321 214.293,206.707C214.293,210.09 211.54,213.107 208.154,213.107L181.918,213.107L185.509,224.651L208.154,224.651C218.192,224.651 226.359,216.745 226.359,206.707C226.359,196.669 218.192,188.767 208.154,188.767Z" style="fill:white;fill-rule:nonzero;"/>
            <path d="M348.372,251.715L299.039,251.715L299.039,300.808L259.729,300.808L259.729,251.715L210.4,251.715L210.4,404.055L259.729,404.055L259.729,354.962L299.039,354.962L299.039,404.055L348.372,404.055L348.372,251.715Z" style="fill:white;fill-rule:nonzero;"/>
            <path d="M432.983,364.005L438.318,364.005C469.276,364.005 494.463,338.817 494.463,307.86C494.463,297.208 491.48,287.24 486.309,278.748C476.45,262.553 458.627,251.715 438.318,251.715L383.654,251.715L383.654,404.055L432.983,404.055L432.983,364.005Z" style="fill:white;fill-rule:nonzero;"/>
            <path d="M127.131,364.005C158.088,364.005 183.276,338.817 183.276,307.86C183.276,297.208 180.293,287.24 175.121,278.748C165.263,262.553 147.439,251.715 127.131,251.715L72.466,251.715L72.466,404.055L121.795,404.055L121.795,364.005L127.131,364.005Z" style="fill:white;fill-rule:nonzero;"/>
            <path d="M348.372,270.597L317.924,270.597L317.924,319.69L278.611,319.69L259.729,300.808L259.729,270.597L229.282,270.597L229.282,404.055L259.729,404.055L259.729,354.962L299.039,354.962L317.924,373.844L317.924,404.055L348.372,404.055L348.372,270.597Z" style="fill:rgb(255,215,0);fill-rule:nonzero;"/>
            <path d="M432.983,404.055L432.983,364.005L438.318,364.005C469.276,364.005 494.463,338.817 494.463,307.86C494.463,297.208 491.48,287.24 486.309,278.748C477.817,273.576 467.849,270.597 457.2,270.597L402.535,270.597L402.535,404.055L432.983,404.055Z" style="fill:rgb(255,215,0);fill-rule:nonzero;"/>
            <path d="M121.795,404.055L121.795,364.005L127.131,364.005C158.088,364.005 183.276,338.817 183.276,307.86C183.276,297.208 180.293,287.24 175.121,278.748C166.63,273.576 156.661,270.597 146.013,270.597L91.348,270.597L91.348,404.055L121.795,404.055Z" style="fill:rgb(255,215,0);fill-rule:nonzero;"/>
            <path d="M177.572,224.695L157.071,163.003L145.613,163.003L125.112,224.695L137.817,224.695L151.342,183.388L158.598,205.542L152,205.542L148.283,216.332L162.129,216.332L164.869,224.695L177.572,224.695Z" style="fill:white;fill-rule:nonzero;"/>
        </g>
    </g>
</svg>
