<?xml version="1.0" encoding="UTF-8" standalone="no"?>
<!DOCTYPE svg PUBLIC "-//W3C//DTD SVG 1.1//EN" "http://www.w3.org/Graphics/SVG/1.1/DTD/svg11.dtd">
<svg width="100%" height="100%" viewBox="0 0 460 280" version="1.1" xmlns="http://www.w3.org/2000/svg" xmlns:xlink="http://www.w3.org/1999/xlink" xml:space="preserve" xmlns:serif="http://www.serif.com/" style="fill-rule:evenodd;clip-rule:evenodd;stroke-linejoin:round;stroke-miterlimit:1.41421;">
    <g id="Artboard" transform="matrix(1,0,0,1,-53.466,-144.003)">
        <rect x="53.466" y="144.003" width="459.997" height="279.052" style="fill:none;"/>
        <g id="Sticker" transform="matrix(1,0,0,1,0.466,0.003)">
            <g id="Background" transform="matrix(1,0,0,1,53,144)">
                <path d="M416.533,97.702C418.434,98.186 420.7,99.734 423.959,101.659C427.981,104.033 434.557,108.778 440.566,115.795C445.882,122.003 451.161,130.558 454.061,138.435C455.782,143.109 457.158,148.603 457.812,152.536C458.631,157.461 458.634,162.444 458.634,164.457C458.368,185.686 448.992,202.966 440.215,212.442C433.617,219.566 427.596,224.267 419.455,228.705C412.74,232.366 402.47,235.609 397.091,236.192C396.975,237.595 397.141,250.916 397.064,260.055C397.018,265.531 394.235,269.49 393.848,270.035C388.093,278.127 379.722,276.981 379.659,277.177L156.486,277.122C154.772,276.987 153.352,276.777 152.025,276.297C146.635,274.347 142.962,270.575 141.246,265.526C140.707,263.943 140.343,262.065 140.321,260.627L140.287,195.362C137.448,201.058 134.275,206.254 130.512,210.719C119.954,223.246 103.9,233.423 85.927,236.185L85.915,260.7C85.607,264.866 84.224,268.146 82.073,270.804C78.834,274.806 74.299,276.988 68.779,277.182L20.438,277.177C10.059,277.4 1.906,269.307 2.329,259.067L2.329,108.104C2.329,102.325 5.042,97.174 9.263,93.857C5.08,90.565 2.393,85.457 2.393,79.726L2.393,21.067C2.393,11.146 10.447,3.092 20.369,3.091L431.494,3.091C437.878,3.333 443.2,6.611 446.373,11.712C447.115,12.905 447.505,13.981 447.961,15.354C448.518,17.031 449.065,18.901 449.708,21.044L451.345,26.225C451.74,27.371 452.032,28.698 452.207,30.233C452.448,32.602 452.174,34.875 451.499,37.073C450.525,40.025 448.93,42.484 446.729,44.551L446.752,56.164C448.908,57.993 450.526,60.202 451.54,62.837C452.803,65.983 453.032,69.168 452.466,72.383C452.633,72.378 449.283,82.749 448.912,84.184C446.864,92.121 440.368,97.909 431.494,97.702L416.533,97.702Z" style="fill:rgb(107,17,255);"/>
            </g>
            <g id="Letters">
                <path d="M267.814,190.162L246.718,190.162L246.718,164.37L234.652,164.37L234.652,224.695L246.718,224.695L246.718,201.709L267.814,201.709L267.814,224.695L279.877,224.695L279.877,164.37L267.814,164.37L267.814,190.162Z" style="fill:white;fill-rule:nonzero;"/>
                <rect x="349.143" y="164.37" width="12.586" height="60.325" style="fill:white;"/>
                <path d="M387.323,164.37L375.26,164.37L375.26,224.695L401.392,224.695L404.983,213.148L387.323,213.148L387.323,164.37Z" style="fill:white;fill-rule:nonzero;"/>
                <path d="M425.181,164.37L413.115,164.37L413.115,224.695L439.25,224.695L442.841,213.148L425.181,213.148L425.181,164.37Z" style="fill:white;fill-rule:nonzero;"/>
                <path d="M463.036,213.148L463.036,201.189L482.63,201.189L482.63,189.643L463.036,189.643L463.036,175.917L488.173,175.917L484.583,164.37L450.973,164.37L450.973,224.695L485.074,224.695L488.661,213.148L463.036,213.148Z" style="fill:white;fill-rule:nonzero;"/>
                <path d="M314.917,205.68L301.389,164.37L288.687,164.37L309.187,226.062L320.649,226.062L341.146,164.37L328.444,164.37L314.917,205.68Z" style="fill:white;fill-rule:nonzero;"/>
                <path d="M106.365,201.646L82.816,164.37L72.466,164.37L72.466,224.695L84.529,224.695L84.529,187.419L108.079,224.695L118.431,224.695L118.431,164.37L106.365,164.37L106.365,201.646Z" style="fill:white;fill-rule:nonzero;"/>
                <path d="M208.154,188.767L198.035,188.767C194.649,188.767 191.893,185.747 191.893,182.361C191.893,178.975 194.649,175.958 198.035,175.958L222.334,175.958L218.746,164.414L198.035,164.414C187.997,164.414 179.83,172.323 179.83,182.361C179.83,192.399 187.997,200.301 198.035,200.301L208.154,200.301C211.54,200.301 214.293,203.321 214.293,206.707C214.293,210.09 211.54,213.107 208.154,213.107L181.918,213.107L185.509,224.651L208.154,224.651C218.192,224.651 226.359,216.745 226.359,206.707C226.359,196.669 218.192,188.767 208.154,188.767Z" style="fill:white;fill-rule:nonzero;"/>
                <path d="M348.372,251.715L299.039,251.715L299.039,300.808L259.729,300.808L259.729,251.715L210.4,251.715L210.4,404.055L259.729,404.055L259.729,354.962L299.039,354.962L299.039,404.055L348.372,404.055L348.372,251.715Z" style="fill:white;fill-rule:nonzero;"/>
                <path d="M432.983,364.005L438.318,364.005C469.276,364.005 494.463,338.817 494.463,307.86C494.463,297.208 491.48,287.24 486.309,278.748C476.45,262.553 458.627,251.715 438.318,251.715L383.654,251.715L383.654,404.055L432.983,404.055L432.983,364.005Z" style="fill:white;fill-rule:nonzero;"/>
                <path d="M127.131,364.005C158.088,364.005 183.276,338.817 183.276,307.86C183.276,297.208 180.293,287.24 175.121,278.748C165.263,262.553 147.439,251.715 127.131,251.715L72.466,251.715L72.466,404.055L121.795,404.055L121.795,364.005L127.131,364.005Z" style="fill:white;fill-rule:nonzero;"/>
                <path d="M348.372,270.597L317.924,270.597L317.924,319.69L278.611,319.69L259.729,300.808L259.729,270.597L229.282,270.597L229.282,404.055L259.729,404.055L259.729,354.962L299.039,354.962L317.924,373.844L317.924,404.055L348.372,404.055L348.372,270.597Z" style="fill:rgb(255,215,0);fill-rule:nonzero;"/>
                <path d="M432.983,404.055L432.983,364.005L438.318,364.005C469.276,364.005 494.463,338.817 494.463,307.86C494.463,297.208 491.48,287.24 486.309,278.748C477.817,273.576 467.849,270.597 457.2,270.597L402.535,270.597L402.535,404.055L432.983,404.055Z" style="fill:rgb(255,215,0);fill-rule:nonzero;"/>
                <path d="M121.795,404.055L121.795,364.005L127.131,364.005C158.088,364.005 183.276,338.817 183.276,307.86C183.276,297.208 180.293,287.24 175.121,278.748C166.63,273.576 156.661,270.597 146.013,270.597L91.348,270.597L91.348,404.055L121.795,404.055Z" style="fill:rgb(255,215,0);fill-rule:nonzero;"/>
                <path d="M177.572,224.695L157.071,163.003L145.613,163.003L125.112,224.695L137.817,224.695L151.342,183.388L158.598,205.542L152,205.542L148.283,216.332L162.129,216.332L164.869,224.695L177.572,224.695Z" style="fill:white;fill-rule:nonzero;"/>
            </g>
        </g>
    </g>
</svg>
