<?xml version="1.0" encoding="UTF-8" standalone="no"?>
<!DOCTYPE svg PUBLIC "-//W3C//DTD SVG 1.1//EN" "http://www.w3.org/Graphics/SVG/1.1/DTD/svg11.dtd">
<svg width="100%" height="100%" viewBox="0 0 960 125" version="1.1" xmlns="http://www.w3.org/2000/svg" xmlns:xlink="http://www.w3.org/1999/xlink" xml:space="preserve" xmlns:serif="http://www.serif.com/" style="fill-rule:evenodd;clip-rule:evenodd;stroke-linejoin:round;stroke-miterlimit:1.41421;">
    <rect id="Artboard1" x="0" y="0" width="960" height="125" style="fill:none;"/>
    <clipPath id="_clip1">
        <rect id="Artboard11" serif:id="Artboard1" x="0" y="0" width="960" height="125"/>
    </clipPath>
    <g clip-path="url(#_clip1)">
        <g>
            <rect x="0" y="0.001" width="960" height="124.999" style="fill:rgb(255,215,0);fill-rule:nonzero;"/>
            <path d="M172.61,63.088L-479.227,714.924L-153.308,1040.84L498.528,389.003L172.61,63.088Z" style="fill:white;fill-rule:nonzero;"/>
            <path d="M172.61,-588.75L-153.308,-262.83L498.528,389.003L824.447,63.088L172.61,-588.75Z" style="fill:rgb(107,17,255);fill-rule:nonzero;"/>
            <path d="M474.565,30.074L467.238,30.074L467.238,21.117L463.048,21.117L463.048,42.067L467.238,42.067L467.238,34.084L474.565,34.084L474.565,42.067L478.755,42.067L478.755,21.117L474.565,21.117L474.565,30.074Z" style="fill:white;fill-rule:nonzero;"/>
            <rect x="502.81" y="21.117" width="4.371" height="20.95" style="fill:white;fill-rule:nonzero;"/>
            <path d="M516.07,21.117L511.88,21.117L511.88,42.067L520.956,42.067L522.203,38.057L516.07,38.057L516.07,21.117Z" style="fill:white;fill-rule:nonzero;"/>
            <path d="M529.218,21.117L525.028,21.117L525.028,42.067L534.105,42.067L535.351,38.057L529.218,38.057L529.218,21.117Z" style="fill:white;fill-rule:nonzero;"/>
            <path d="M542.366,38.057L542.366,33.903L549.169,33.903L549.169,29.894L542.366,29.894L542.366,25.127L551.095,25.127L549.848,21.117L538.175,21.117L538.175,42.067L550.018,42.067L551.265,38.057L542.366,38.057Z" style="fill:white;fill-rule:nonzero;"/>
            <path d="M490.924,35.464L486.226,21.117L481.815,21.117L488.934,42.542L492.914,42.542L500.033,21.117L495.621,21.117L490.924,35.464Z" style="fill:white;fill-rule:nonzero;"/>
            <path d="M418.494,34.062L410.316,21.117L406.72,21.117L406.72,42.067L410.911,42.067L410.911,29.122L419.089,42.067L422.684,42.067L422.684,21.117L418.494,21.117L418.494,34.062Z" style="fill:white;fill-rule:nonzero;"/>
            <path d="M453.845,29.589L450.331,29.589C449.155,29.589 448.198,28.541 448.198,27.364C448.198,26.188 449.155,25.141 450.331,25.141L458.77,25.141L457.523,21.132L450.331,21.132C446.844,21.132 444.008,23.878 444.008,27.364C444.008,30.85 446.844,33.596 450.331,33.596L453.845,33.596C455.021,33.596 455.978,34.644 455.978,35.82C455.978,36.995 455.021,38.043 453.845,38.043L444.733,38.043L445.981,42.052L453.845,42.052C457.331,42.052 460.168,39.306 460.168,35.82C460.168,32.334 457.331,29.589 453.845,29.589Z" style="fill:white;fill-rule:nonzero;"/>
            <path d="M502.542,51.451L485.41,51.451L485.41,68.501L471.757,68.501L471.757,51.451L454.625,51.451L454.625,104.359L471.757,104.359L471.757,87.309L485.41,87.309L485.41,104.359L502.542,104.359L502.542,51.451Z" style="fill:white;fill-rule:nonzero;"/>
            <path d="M531.927,90.45L533.781,90.45C544.532,90.45 553.279,81.702 553.279,70.95C553.279,67.252 552.244,63.79 550.448,60.84C547.023,55.215 540.834,51.451 533.781,51.451L514.794,51.451L514.794,104.359L531.927,104.359L531.927,90.45Z" style="fill:white;fill-rule:nonzero;"/>
            <path d="M425.706,90.45C436.458,90.45 445.205,81.702 445.205,70.95C445.205,67.252 444.169,63.79 442.374,60.84C438.949,55.215 432.759,51.451 425.706,51.451L406.721,51.451L406.721,104.359L423.853,104.359L423.853,90.449L425.706,90.45Z" style="fill:white;fill-rule:nonzero;"/>
            <path d="M502.542,58.009L491.967,58.009L491.967,75.058L478.315,75.058L471.757,68.501L471.757,58.009L461.183,58.009L461.183,104.359L471.757,104.359L471.757,87.309L485.41,87.309L491.967,93.867L491.967,104.359L502.542,104.359L502.542,58.009Z" style="fill:rgb(255,215,0);fill-rule:nonzero;"/>
            <path d="M531.927,104.359L531.927,90.45L533.781,90.45C544.532,90.45 553.279,81.702 553.279,70.95C553.279,67.252 552.244,63.79 550.448,60.84C547.498,59.044 544.037,58.009 540.338,58.009L521.353,58.009L521.353,104.359L531.927,104.359Z" style="fill:rgb(255,215,0);fill-rule:nonzero;"/>
            <path d="M423.853,104.359L423.853,90.45L425.706,90.45C436.458,90.45 445.205,81.702 445.205,70.95C445.205,67.252 444.169,63.79 442.374,60.84C439.424,59.044 435.962,58.009 432.264,58.009L413.278,58.009L413.278,104.359L423.853,104.359Z" style="fill:rgb(255,215,0);fill-rule:nonzero;"/>
            <path d="M443.224,42.067L436.105,20.642L432.125,20.642L425.005,42.067L429.417,42.067L434.114,27.721L436.634,35.416L434.342,35.416L433.053,39.163L437.861,39.163L438.812,42.067L443.224,42.067Z" style="fill:white;fill-rule:nonzero;"/>
        </g>
    </g>
</svg>
