<?xml version="1.0" encoding="UTF-8" standalone="no"?>
<!DOCTYPE svg PUBLIC "-//W3C//DTD SVG 1.1//EN" "http://www.w3.org/Graphics/SVG/1.1/DTD/svg11.dtd">
<svg width="100%" height="100%" viewBox="0 0 1200 630" version="1.1" xmlns="http://www.w3.org/2000/svg" xmlns:xlink="http://www.w3.org/1999/xlink" xml:space="preserve" xmlns:serif="http://www.serif.com/" style="fill-rule:evenodd;clip-rule:evenodd;stroke-linejoin:round;stroke-miterlimit:1.41421;">
    <rect id="Artboard1" x="0" y="0" width="1200" height="630" style="fill:none;"/>
    <clipPath id="_clip1">
        <rect id="Artboard11" serif:id="Artboard1" x="0" y="0" width="1200" height="630"/>
    </clipPath>
    <g clip-path="url(#_clip1)">
        <g>
            <rect x="0" y="0" width="1200" height="630" style="fill:rgb(107,17,255);fill-rule:nonzero;"/>
            <path d="M963.604,0L1200,0L1200,236.396L963.604,0Z" style="fill:rgb(255,215,0);fill-rule:nonzero;"/>
            <path d="M728.122,182.485C728.122,185.796 725.438,188.481 722.126,188.481C718.815,188.481 716.131,185.796 716.131,182.485C716.131,179.174 718.815,176.49 722.126,176.49C725.438,176.49 728.122,179.174 728.122,182.485Z" style="fill:rgb(255,215,0);fill-rule:nonzero;"/>
            <path d="M619.998,318.151C613.97,319.168 609.893,324.898 610.91,330.926L614.738,353.623C615.755,359.65 621.485,363.727 627.513,362.71C633.541,361.694 637.617,355.962 636.601,349.935L632.773,327.239C631.757,321.21 626.026,317.134 619.998,318.151ZM630.016,377.553C615.804,379.95 602.292,370.337 599.895,356.126L596.067,333.429C593.67,319.217 603.283,305.705 617.495,303.308C631.706,300.911 645.219,310.523 647.616,324.736L651.444,347.431C653.841,361.643 644.228,375.156 630.016,377.553Z" style="fill:white;fill-rule:nonzero;"/>
            <path d="M660.839,269.882C662.299,278.535 656.467,286.733 647.814,288.192C639.161,289.651 630.964,283.82 629.505,275.168C628.045,266.514 633.877,258.317 642.529,256.857C651.182,255.398 659.38,261.229 660.839,269.882Z" style="fill:rgb(255,215,0);fill-rule:nonzero;"/>
            <path d="M684.312,252.542C685.99,262.494 679.283,271.921 669.331,273.6C659.379,275.279 649.95,268.572 648.272,258.62C646.593,248.668 653.3,239.239 663.253,237.561C673.205,235.882 682.633,242.589 684.312,252.542Z" style="fill:rgb(255,215,0);fill-rule:nonzero;"/>
            <path d="M624.112,278.709L644.01,396.685L658.224,394.289L732.037,381.839L714.674,278.884L712.14,263.863L624.112,278.709Z" style="fill:white;fill-rule:nonzero;"/>
            <path d="M658.224,394.289L732.037,381.839L714.674,278.884L640.861,291.333L658.224,394.289Z" style="fill:rgb(255,215,0);fill-rule:nonzero;"/>
            <path d="M678.52,370.08C682.218,369.456 684.71,365.953 684.087,362.254L676.146,315.173C675.523,311.476 672.019,308.984 668.321,309.608C664.624,310.231 662.132,313.734 662.756,317.432L670.696,364.513C671.32,368.21 674.823,370.703 678.52,370.08Z" style="fill:white;fill-rule:nonzero;"/>
            <path d="M706.779,365.313C710.477,364.69 712.969,361.186 712.345,357.489L704.405,310.408C703.781,306.71 700.278,304.218 696.58,304.841C692.883,305.465 690.391,308.968 691.014,312.666L698.955,359.748C699.578,363.445 703.082,365.937 706.779,365.313Z" style="fill:white;fill-rule:nonzero;"/>
            <path d="M705.814,254.469C707.491,264.418 700.787,273.842 690.839,275.52C680.89,277.198 671.466,270.494 669.788,260.545C668.11,250.597 674.815,241.172 684.763,239.495C694.711,237.817 704.136,244.521 705.814,254.469Z" style="fill:rgb(255,215,0);fill-rule:nonzero;"/>
            <path d="M822.794,308.695C816.873,307.174 810.819,310.753 809.299,316.674L803.572,338.967C802.052,344.888 805.632,350.942 811.552,352.462C817.473,353.984 823.527,350.404 825.048,344.483L830.773,322.19C832.294,316.269 828.715,310.215 822.794,308.695ZM807.808,367.042C793.848,363.457 785.408,349.182 788.993,335.223L794.719,312.93C798.304,298.97 812.579,290.53 826.538,294.116C840.498,297.701 848.938,311.975 845.352,325.934L839.627,348.228C836.041,362.187 821.767,370.628 807.808,367.042Z" style="fill:white;fill-rule:nonzero;"/>
            <path d="M776.801,254.753C774.618,263.252 765.959,268.374 757.46,266.19C748.96,264.007 743.84,255.347 746.023,246.848C748.206,238.349 756.865,233.229 765.364,235.412C773.864,237.595 778.984,246.254 776.801,254.753Z" style="fill:rgb(255,215,0);fill-rule:nonzero;"/>
            <path d="M805.295,248.448C802.784,258.223 792.824,264.112 783.049,261.601C773.274,259.091 767.385,249.131 769.895,239.356C772.406,229.581 782.366,223.691 792.141,226.202C801.917,228.712 807.806,238.672 805.295,248.448Z" style="fill:rgb(255,215,0);fill-rule:nonzero;"/>
            <path d="M739.657,247.893L709.894,363.775L723.856,367.361L796.358,385.983L822.332,284.855L826.121,270.101L739.657,247.893Z" style="fill:white;fill-rule:nonzero;"/>
            <path d="M723.856,367.361L796.358,385.983L822.332,284.855L749.83,266.234L723.856,367.361Z" style="fill:rgb(255,215,0);fill-rule:nonzero;"/>
            <path d="M752.238,353.489C755.871,354.422 759.571,352.234 760.504,348.602L772.382,302.357C773.315,298.725 771.127,295.024 767.494,294.091C763.862,293.159 760.162,295.346 759.229,298.979L747.351,345.224C746.419,348.856 748.607,352.556 752.238,353.489Z" style="fill:white;fill-rule:nonzero;"/>
            <path d="M779.996,360.619C783.628,361.551 787.328,359.363 788.261,355.731L800.139,309.486C801.071,305.854 798.883,302.153 795.252,301.22L795.251,301.22C791.619,300.288 787.919,302.476 786.986,306.108L775.109,352.353C774.175,355.985 776.363,359.685 779.996,360.619Z" style="fill:white;fill-rule:nonzero;"/>
            <path d="M824.158,258.948C821.648,268.719 811.693,274.606 801.921,272.096C792.149,269.586 786.262,259.63 788.772,249.859C791.282,240.087 801.238,234.201 811.009,236.71C820.781,239.22 826.668,249.175 824.158,258.948Z" style="fill:rgb(255,215,0);fill-rule:nonzero;"/>
            <path d="M699.371,209.687C699.371,214.983 695.078,219.276 689.781,219.276C684.486,219.276 680.193,214.983 680.193,209.687C680.193,204.391 684.486,200.097 689.781,200.097C695.078,200.097 699.371,204.391 699.371,209.687Z" style="fill:rgb(255,215,0);fill-rule:nonzero;"/>
            <path d="M770.904,206.899C770.904,212.195 766.611,216.488 761.315,216.488C756.019,216.488 751.726,212.195 751.726,206.899C751.726,201.603 756.019,197.31 761.315,197.31C766.611,197.31 770.904,201.603 770.904,206.899Z" style="fill:rgb(255,215,0);fill-rule:nonzero;"/>
            <path d="M655.634,205.904C656.179,209.188 653.957,212.293 650.673,212.837C647.387,213.381 644.283,211.161 643.739,207.876C643.194,204.59 645.416,201.486 648.7,200.942C651.986,200.397 655.09,202.619 655.634,205.904Z" style="fill:rgb(255,215,0);fill-rule:nonzero;"/>
            <path d="M996.201,556.034C993.993,556.034 991.756,555.483 989.695,554.321C920.429,515.298 866.119,446.498 847.96,374.768C846.159,367.659 850.464,360.434 857.575,358.634C864.68,356.835 871.908,361.139 873.709,368.251C890.146,433.171 939.584,495.603 1002.73,531.179C1009.12,534.78 1011.38,542.878 1007.78,549.269C1005.34,553.599 1000.84,556.034 996.201,556.034Z" style="fill:white;fill-rule:nonzero;"/>
            <path d="M455.936,562.322C451.298,562.322 446.793,559.887 444.353,555.558C440.753,549.167 443.015,541.068 449.406,537.467C512.554,501.892 561.992,439.46 578.429,374.539C580.23,367.426 587.461,363.123 594.563,364.922C601.674,366.723 605.979,373.947 604.178,381.057C586.018,452.787 531.708,521.586 462.443,560.609C460.383,561.77 458.145,562.322 455.936,562.322Z" style="fill:white;fill-rule:nonzero;"/>
            <path d="M845.07,374.933L841.674,374.933C834.339,374.933 828.393,368.988 828.393,361.653L828.393,347.525C828.393,340.19 834.339,334.244 841.674,334.244L845.07,334.244C852.405,334.244 858.351,340.19 858.351,347.525L858.351,361.653C858.351,368.988 852.405,374.933 845.07,374.933Z" style="fill:white;fill-rule:nonzero;"/>
            <path d="M841.674,347.525L841.674,361.653L845.07,361.653C845.082,361.653 845.087,361.652 845.087,361.652L845.07,347.525L841.674,347.525ZM845.07,388.214L841.674,388.214C827.028,388.214 815.113,376.298 815.113,361.653L815.113,347.525C815.113,332.878 827.028,320.963 841.674,320.963L845.07,320.963C859.716,320.963 871.632,332.878 871.632,347.525L871.632,361.653C871.632,376.298 859.716,388.214 845.07,388.214Z" style="fill:white;fill-rule:nonzero;"/>
            <path d="M600.427,381.222L603.823,381.222C611.158,381.222 617.104,375.276 617.104,367.942L617.104,353.813C617.104,346.479 611.158,340.533 603.823,340.533L600.427,340.533C593.092,340.533 587.146,346.479 587.146,353.813L587.146,367.942C587.146,375.276 593.092,381.222 600.427,381.222Z" style="fill:white;fill-rule:nonzero;"/>
            <path d="M600.427,353.814L600.427,367.942L603.823,367.942L603.823,353.814L600.427,353.814ZM603.823,394.503L600.427,394.503C585.781,394.503 573.866,382.587 573.866,367.942L573.866,353.814C573.866,339.168 585.781,327.251 600.427,327.251L603.823,327.251C618.469,327.251 630.385,339.168 630.385,353.814L630.385,367.942C630.385,382.587 618.469,394.503 603.823,394.503Z" style="fill:white;fill-rule:nonzero;"/>
            <path d="M863.412,322.475C863.412,330.707 856.739,337.378 848.508,337.378C840.278,337.378 833.606,330.707 833.606,322.475C833.606,314.245 840.278,307.572 848.508,307.572C856.739,307.572 863.412,314.245 863.412,322.475Z" style="fill:white;fill-rule:nonzero;"/>
            <path d="M610.378,327.963C610.378,336.194 603.705,342.867 595.475,342.867C587.244,342.867 580.571,336.194 580.571,327.963C580.571,319.733 587.244,313.06 595.475,313.06C603.705,313.06 610.378,319.733 610.378,327.963Z" style="fill:white;fill-rule:nonzero;"/>
            <path d="M491.062,431.677C491.062,468.982 460.82,499.224 423.515,499.224C386.21,499.224 355.968,468.982 355.968,431.677C355.968,394.372 386.21,364.13 423.515,364.13C460.82,364.13 491.062,394.372 491.062,431.677Z" style="fill:white;fill-rule:nonzero;"/>
            <path d="M346.066,424.501C330.882,409.317 294.164,415.667 283.121,443.827C272.078,471.986 274.839,527.201 232.875,528.305C256.04,556.717 294.291,553.992 312.672,534.894C337.026,509.59 312.032,457.422 346.066,424.501Z" style="fill:rgb(255,215,0);fill-rule:nonzero;"/>
            <path d="M447.172,387.788C459.757,387.788 471.53,391.24 481.617,397.232C469.844,377.418 448.236,364.13 423.515,364.13C386.21,364.13 355.968,394.372 355.968,431.677C355.968,456.398 369.255,478.006 389.07,489.779C383.077,479.692 379.625,467.918 379.625,455.335C379.625,418.029 409.867,387.788 447.172,387.788Z" style="fill:rgb(255,215,0);fill-rule:nonzero;"/>
            <path d="M975.553,429.684C975.553,466.99 1005.79,497.231 1043.1,497.231C1080.41,497.231 1110.65,466.99 1110.65,429.684C1110.65,392.379 1080.41,362.137 1043.1,362.137C1005.79,362.137 975.553,392.379 975.553,429.684Z" style="fill:white;fill-rule:nonzero;"/>
            <path d="M1019.44,385.794C1006.86,385.794 995.085,389.247 984.998,395.24C996.771,375.424 1018.38,362.137 1043.1,362.137C1080.41,362.137 1110.65,392.379 1110.65,429.684C1110.65,454.405 1097.36,476.013 1077.54,487.787C1083.54,477.7 1086.99,465.925 1086.99,453.341C1086.99,416.037 1056.75,385.794 1019.44,385.794Z" style="fill:rgb(255,215,0);fill-rule:nonzero;"/>
            <path d="M673.388,85.489L662.195,96.683L684.581,119.067L695.774,107.875L673.388,85.489Z" style="fill:rgb(255,215,0);fill-rule:nonzero;"/>
            <path d="M684.581,51.911L651.003,85.489L662.195,96.683L695.774,63.104L684.581,51.911Z" style="fill:white;fill-rule:nonzero;"/>
            <path d="M1025.01,220.159L1013.81,231.351L1036.2,253.737L1047.39,242.544L1025.01,220.159Z" style="fill:rgb(255,215,0);fill-rule:nonzero;"/>
            <path d="M1036.2,186.58L1002.62,220.159L1013.81,231.351L1047.39,197.773L1036.2,186.58Z" style="fill:white;fill-rule:nonzero;"/>
            <path d="M145.878,409.809L134.685,421.001L157.07,443.387L168.263,432.195L145.878,409.809Z" style="fill:rgb(255,215,0);fill-rule:nonzero;"/>
            <path d="M157.07,376.231L123.492,409.809L134.685,421.001L168.263,387.423L157.07,376.231Z" style="fill:white;fill-rule:nonzero;"/>
            <path d="M509.809,175.311L498.616,164.118L509.809,152.925L521.002,164.118L509.809,175.311Z" style="fill:white;fill-rule:nonzero;"/>
            <path d="M521.002,186.503L498.616,208.889L509.809,220.082L532.195,197.697L521.002,186.503Z" style="fill:white;fill-rule:nonzero;"/>
            <path d="M521.002,164.118L509.809,175.311L532.195,197.697L543.388,186.503L521.002,164.118Z" style="fill:rgb(255,215,0);fill-rule:nonzero;"/>
            <path d="M879.25,122.896L868.057,111.703L879.25,100.51L890.443,111.703L879.25,122.896Z" style="fill:white;fill-rule:nonzero;"/>
            <path d="M890.443,134.088L868.057,156.474L879.25,167.667L901.635,145.281L890.443,134.088Z" style="fill:white;fill-rule:nonzero;"/>
            <path d="M890.443,111.703L879.25,122.896L901.635,145.281L912.828,134.088L890.443,111.703Z" style="fill:rgb(255,215,0);fill-rule:nonzero;"/>
            <path d="M727.507,490.977L716.314,479.785L727.507,468.592L738.699,479.785L727.507,490.977Z" style="fill:white;fill-rule:nonzero;"/>
            <path d="M738.699,502.17L716.314,524.556L727.507,535.749L749.892,513.363L738.699,502.17Z" style="fill:white;fill-rule:nonzero;"/>
            <path d="M738.699,479.785L727.507,490.978L749.892,513.363L761.085,502.17L738.699,479.785Z" style="fill:rgb(255,215,0);fill-rule:nonzero;"/>
            <path d="M236.262,121.47L221.037,121.47L221.037,102.856L212.329,102.856L212.329,146.392L221.037,146.392L221.037,129.802L236.262,129.802L236.262,146.392L244.969,146.392L244.969,102.856L236.262,102.856L236.262,121.47Z" style="fill:white;fill-rule:nonzero;"/>
            <rect x="294.957" y="102.856" width="9.083" height="43.536" style="fill:white;fill-rule:nonzero;"/>
            <path d="M322.512,102.856L313.805,102.856L313.805,146.392L332.667,146.392L335.257,138.06L322.512,138.06L322.512,102.856Z" style="fill:white;fill-rule:nonzero;"/>
            <path d="M349.834,102.856L341.127,102.856L341.127,146.392L359.989,146.392L362.58,138.06L349.834,138.06L349.834,102.856Z" style="fill:white;fill-rule:nonzero;"/>
            <path d="M377.156,138.06L377.156,129.427L391.296,129.427L391.296,121.095L377.156,121.095L377.156,111.188L395.297,111.188L392.706,102.856L368.448,102.856L368.448,146.392L393.059,146.392L395.65,138.06L377.156,138.06Z" style="fill:white;fill-rule:nonzero;"/>
            <path d="M270.257,132.669L260.495,102.856L251.326,102.856L266.122,147.378L274.392,147.378L289.186,102.856L280.018,102.856L270.257,132.669Z" style="fill:white;fill-rule:nonzero;"/>
            <path d="M119.743,129.758L102.747,102.856L95.276,102.856L95.276,146.392L103.984,146.392L103.984,119.49L120.979,146.392L128.45,146.392L128.45,102.856L119.743,102.856L119.743,129.758Z" style="fill:white;fill-rule:nonzero;"/>
            <path d="M193.204,120.461L185.901,120.461C183.458,120.461 181.469,118.282 181.469,115.838C181.469,113.396 183.458,111.219 185.901,111.219L203.439,111.219L200.848,102.887L185.901,102.887C178.656,102.887 172.762,108.594 172.762,115.838C172.762,123.083 178.656,128.787 185.901,128.787L193.204,128.787C195.648,128.787 197.636,130.966 197.636,133.41C197.636,135.852 195.648,138.029 193.204,138.029L174.27,138.029L176.861,146.361L193.204,146.361C200.449,146.361 206.343,140.654 206.343,133.41C206.343,126.165 200.449,120.461 193.204,120.461Z" style="fill:white;fill-rule:nonzero;"/>
            <path d="M294.4,165.892L258.798,165.892L258.798,201.323L230.426,201.323L230.426,165.892L194.824,165.892L194.825,275.838L230.426,275.838L230.426,240.409L258.798,240.409L258.798,275.838L294.4,275.838L294.4,165.892Z" style="fill:white;fill-rule:nonzero;"/>
            <path d="M355.465,246.934L359.316,246.934C381.659,246.934 399.836,228.755 399.836,206.413C399.836,198.726 397.684,191.533 393.952,185.403C386.836,173.714 373.972,165.892 359.316,165.892L319.864,165.892L319.863,275.838L355.465,275.838L355.465,246.934Z" style="fill:white;fill-rule:nonzero;"/>
            <path d="M134.729,246.934C157.072,246.934 175.249,228.755 175.249,206.413C175.249,198.726 173.097,191.533 169.365,185.403C162.249,173.713 149.385,165.892 134.729,165.892L95.276,165.892L95.276,275.838L130.878,275.838L130.878,246.934L134.729,246.934Z" style="fill:white;fill-rule:nonzero;"/>
            <path d="M294.4,179.52L272.425,179.52L272.425,214.95L244.054,214.95L230.426,201.323L230.426,179.52L208.452,179.52L208.452,275.838L230.426,275.838L230.426,240.409L258.798,240.409L272.425,254.037L272.425,275.838L294.4,275.838L294.4,179.52Z" style="fill:rgb(255,215,0);fill-rule:nonzero;"/>
            <path d="M355.465,275.838L355.465,246.934L359.316,246.934C381.659,246.934 399.836,228.755 399.836,206.413C399.836,198.726 397.684,191.533 393.952,185.403C387.822,181.67 380.63,179.519 372.944,179.519L372.944,179.52L333.491,179.52L333.491,275.838L355.465,275.838Z" style="fill:rgb(255,215,0);fill-rule:nonzero;"/>
            <path d="M130.878,275.838L130.878,246.934L134.729,246.934C157.072,246.934 175.249,228.755 175.249,206.413C175.249,198.726 173.097,191.533 169.365,185.403C163.236,181.67 156.043,179.519 148.357,179.519L148.357,179.52L108.904,179.52L108.904,275.838L130.878,275.838Z" style="fill:rgb(255,215,0);fill-rule:nonzero;"/>
            <path d="M171.133,146.392L156.338,101.869L148.067,101.869L133.273,146.392L142.442,146.392L152.202,116.581L157.439,132.571L152.676,132.571L149.996,140.357L159.988,140.357L161.965,146.392L171.133,146.392Z" style="fill:white;fill-rule:nonzero;"/>
        </g>
    </g>
</svg>
