<?xml version="1.0" encoding="UTF-8" standalone="no"?>
<!DOCTYPE svg PUBLIC "-//W3C//DTD SVG 1.1//EN" "http://www.w3.org/Graphics/SVG/1.1/DTD/svg11.dtd">
<svg width="100%" height="100%" viewBox="0 0 1200 630" version="1.1" xmlns="http://www.w3.org/2000/svg" xmlns:xlink="http://www.w3.org/1999/xlink" xml:space="preserve" xmlns:serif="http://www.serif.com/" style="fill-rule:evenodd;clip-rule:evenodd;stroke-linejoin:round;stroke-miterlimit:1.41421;">
    <rect id="Artboard1" x="0" y="0" width="1200" height="630" style="fill:none;"/>
    <clipPath id="_clip1">
        <rect id="Artboard11" serif:id="Artboard1" x="0" y="0" width="1200" height="630"/>
    </clipPath>
    <g clip-path="url(#_clip1)">
        <g>
            <rect x="0" y="0.001" width="1200" height="629.999" style="fill:rgb(107,17,255);fill-rule:nonzero;"/>
            <path d="M1200,347.035L1200,630L917.035,630L1200,347.035Z" style="fill:rgb(255,215,0);fill-rule:nonzero;"/>
            <path d="M535.382,522.599L509.331,513.009L509.331,502.866L483.261,493.363L483.261,486.326L457.192,476.823L432.326,476.823L432.326,465.325L370.775,465.325L370.775,476.823L302.655,476.823L302.655,493.363L274.741,493.363L274.741,536.637L251.285,536.637L262.783,548.134L543.714,548.134L543.714,535.308L535.382,522.599Z" style="fill:white;fill-rule:nonzero;"/>
            <rect x="550.26" y="519.502" width="11.185" height="6.192" style="fill:white;fill-rule:nonzero;"/>
            <rect x="532.286" y="496.534" width="6.191" height="11.185" style="fill:white;fill-rule:nonzero;"/>
            <path d="M522.672,514.266L514.763,506.358L519.141,501.98L527.049,509.888L522.672,514.266Z" style="fill:white;fill-rule:nonzero;"/>
            <path d="M551.622,543.216L543.714,535.308L548.091,530.93L556,538.838L551.622,543.216Z" style="fill:white;fill-rule:nonzero;"/>
            <path d="M543.714,509.888L551.622,501.98L556,506.358L548.091,514.266L543.714,509.888Z" style="fill:white;fill-rule:nonzero;"/>
            <rect x="274.741" y="493.363" width="11.498" height="43.274" style="fill:rgb(255,215,0);fill-rule:nonzero;"/>
            <rect x="302.655" y="476.823" width="11.498" height="28.037" style="fill:rgb(255,215,0);fill-rule:nonzero;"/>
            <rect x="370.775" y="465.325" width="11.497" height="22.996" style="fill:rgb(255,215,0);fill-rule:nonzero;"/>
            <rect x="274.741" y="493.363" width="39.412" height="11.497" style="fill:rgb(255,215,0);fill-rule:nonzero;"/>
            <rect x="302.655" y="476.823" width="68.12" height="11.498" style="fill:rgb(255,215,0);fill-rule:nonzero;"/>
            <rect x="370.775" y="465.325" width="61.551" height="11.498" style="fill:rgb(255,215,0);fill-rule:nonzero;"/>
            <path d="M262.783,548.134L251.285,536.637L286.239,536.637L286.239,548.134L262.783,548.134Z" style="fill:rgb(255,215,0);fill-rule:nonzero;"/>
            <path d="M565.314,356.343L611.706,356.343L611.706,338.017L665.066,338.017L665.066,254.285L656.492,254.285L656.492,230.11L647.741,230.11L647.741,165.675L638.685,101.24L629.628,165.675L589.091,165.675L580.034,101.24L570.977,165.675L570.977,230.11L562.227,230.11L562.227,254.285L553.653,254.285L553.653,371.067L565.314,382.727L565.314,356.343Z" style="fill:white;fill-rule:nonzero;"/>
            <path d="M590.477,177.336L641.289,177.336L645.335,148.552L638.685,101.24L629.628,165.675L589.09,165.675L590.477,177.336Z" style="fill:rgb(255,215,0);fill-rule:nonzero;"/>
            <path d="M573.887,265.946L573.887,241.77L582.638,241.77L582.638,177.336L586.684,148.552L580.034,101.24L570.977,165.675L570.977,230.11L562.227,230.11L562.227,254.285L553.653,254.285L553.653,371.067L565.314,382.727L565.314,265.946L573.887,265.946Z" style="fill:rgb(255,215,0);fill-rule:nonzero;"/>
            <path d="M1081.18,278.851L1081.18,146.429L1060.95,146.429L1060.95,127.996L1015.99,127.996L1015.99,146.429L997.554,146.429L997.554,362.474L1081.18,278.851Z" style="fill:rgb(255,215,0);fill-rule:nonzero;"/>
            <path d="M1081.18,278.851L1081.18,157.914L1060.95,157.914L1060.95,139.482L1027.47,139.482L1027.47,157.914L1009.04,157.914L1009.04,350.989L1081.18,278.851Z" style="fill:white;fill-rule:nonzero;"/>
            <path d="M862.584,422.259L905.505,376.815L819.663,376.815L862.584,422.259Z" style="fill:rgb(255,215,0);fill-rule:nonzero;"/>
            <path d="M862.584,422.259L891.683,391.449L833.485,391.449L862.584,422.259Z" style="fill:white;fill-rule:nonzero;"/>
            <path d="M678.68,467.702L608.119,467.702L678.68,400.608L678.68,467.702Z" style="fill:rgb(255,215,0);fill-rule:nonzero;"/>
            <path d="M678.68,467.702L628.512,467.702L678.68,419.998L678.68,467.702Z" style="fill:white;fill-rule:nonzero;"/>
            <path d="M678.68,467.702L742.284,467.702L678.68,400.608L678.68,467.702Z" style="fill:rgb(107,17,255);fill-rule:nonzero;"/>
            <path d="M690.362,467.702L742.284,467.702L690.362,412.931L690.362,467.702Z" style="fill:rgb(255,215,0);fill-rule:nonzero;"/>
            <path d="M742.284,386.077L678.68,400.608L742.284,467.702L742.284,386.077Z" style="fill:rgb(255,215,0);fill-rule:nonzero;"/>
            <path d="M742.284,400.895L690.226,412.787L742.284,467.702L742.284,400.895Z" style="fill:white;fill-rule:nonzero;"/>
            <path d="M742.284,467.702L819.663,467.702L742.284,386.077L742.284,467.702Z" style="fill:rgb(107,17,255);fill-rule:nonzero;"/>
            <path d="M755.002,467.702L819.663,467.702L755.002,399.493L755.002,467.702Z" style="fill:rgb(255,215,0);fill-rule:nonzero;"/>
            <path d="M742.284,386.077L819.663,467.702L819.663,376.815L742.284,386.077Z" style="fill:rgb(255,215,0);fill-rule:nonzero;"/>
            <path d="M755.002,399.493L819.663,467.702L819.663,391.753L755.002,399.493Z" style="fill:white;fill-rule:nonzero;"/>
            <path d="M1046.49,467.702L1117.05,467.702L1046.49,400.608L1046.49,467.702Z" style="fill:rgb(255,215,0);fill-rule:nonzero;"/>
            <path d="M1046.49,467.702L1096.65,467.702L1046.49,419.998L1046.49,467.702Z" style="fill:white;fill-rule:nonzero;"/>
            <path d="M1046.49,467.702L982.883,467.702L1046.49,400.608L1046.49,467.702Z" style="fill:rgb(107,17,255);fill-rule:nonzero;"/>
            <path d="M1034.8,467.702L982.883,467.702L1034.8,412.931L1034.8,467.702Z" style="fill:rgb(255,215,0);fill-rule:nonzero;"/>
            <path d="M982.883,386.077L1046.49,400.608L982.883,467.702L982.883,386.077Z" style="fill:rgb(255,215,0);fill-rule:nonzero;"/>
            <path d="M982.883,400.895L1034.94,412.787L982.883,467.702L982.883,400.895Z" style="fill:white;fill-rule:nonzero;"/>
            <path d="M982.883,467.702L905.504,467.702L982.883,386.077L982.883,467.702Z" style="fill:rgb(107,17,255);fill-rule:nonzero;"/>
            <path d="M970.165,467.702L905.504,467.702L970.165,399.493L970.165,467.702Z" style="fill:rgb(255,215,0);fill-rule:nonzero;"/>
            <path d="M982.883,386.077L905.504,467.702L905.504,376.815L982.883,386.077Z" style="fill:rgb(255,215,0);fill-rule:nonzero;"/>
            <path d="M970.165,399.493L905.504,467.702L905.504,391.753L970.165,399.493Z" style="fill:white;fill-rule:nonzero;"/>
            <path d="M819.663,376.815L819.663,467.702L833.485,467.702L833.485,391.449L819.663,376.815Z" style="fill:rgb(107,17,255);fill-rule:nonzero;"/>
            <path d="M905.504,376.815L891.682,391.449L891.682,467.702L905.504,467.702L905.504,376.815Z" style="fill:rgb(107,17,255);fill-rule:nonzero;"/>
            <path d="M862.584,422.259L833.485,391.449L833.485,467.702L891.682,467.702L891.682,391.449L862.584,422.259Z" style="fill:rgb(255,215,0);fill-rule:nonzero;"/>
            <path d="M842.464,533.15L830.539,521.652L809.374,521.652L803.788,533.15L792.29,533.15L781.867,549.815L853.251,549.815L877.713,533.15L842.464,533.15Z" style="fill:rgb(255,215,0);fill-rule:nonzero;"/>
            <path d="M999.961,564.272L988.035,552.775L966.871,552.775L961.284,564.272L949.787,564.272L939.364,580.937L1010.75,580.937L1035.21,564.272L999.961,564.272Z" style="fill:white;fill-rule:nonzero;"/>
            <path d="M789.924,84.249L781.729,92.442L798.117,108.831L806.312,100.636L789.924,84.249Z" style="fill:rgb(255,215,0);fill-rule:nonzero;"/>
            <path d="M798.117,59.666L773.535,84.249L781.729,92.442L806.312,67.86L798.117,59.666Z" style="fill:white;fill-rule:nonzero;"/>
            <path d="M1098.76,351.404L1090.57,359.597L1106.96,375.986L1115.15,367.791L1098.76,351.404Z" style="fill:rgb(255,215,0);fill-rule:nonzero;"/>
            <path d="M1106.96,326.822L1082.38,351.404L1090.57,359.597L1115.15,335.015L1106.96,326.822Z" style="fill:white;fill-rule:nonzero;"/>
            <path d="M951.81,97.092L943.615,88.898L951.81,80.704L960.004,88.898L951.81,97.092Z" style="fill:white;fill-rule:nonzero;"/>
            <path d="M960.004,105.285L943.615,121.674L951.81,129.868L968.198,113.48L960.004,105.285Z" style="fill:white;fill-rule:nonzero;"/>
            <path d="M960.004,88.898L951.81,97.092L968.198,113.48L976.392,105.285L960.004,88.898Z" style="fill:rgb(255,215,0);fill-rule:nonzero;"/>
            <path d="M712.689,171.719L704.495,163.526L712.689,155.331L720.883,163.526L712.689,171.719Z" style="fill:white;fill-rule:nonzero;"/>
            <path d="M720.883,179.913L704.495,196.302L712.689,204.495L729.077,188.108L720.883,179.913Z" style="fill:white;fill-rule:nonzero;"/>
            <path d="M720.883,163.526L712.689,171.72L729.077,188.108L737.271,179.913L720.883,163.526Z" style="fill:rgb(255,215,0);fill-rule:nonzero;"/>
            <path d="M468.354,372.044L460.159,363.85L468.354,355.656L476.548,363.85L468.354,372.044Z" style="fill:white;fill-rule:nonzero;"/>
            <path d="M476.548,380.238L460.159,396.626L468.354,404.821L484.741,388.432L476.548,380.238Z" style="fill:white;fill-rule:nonzero;"/>
            <path d="M476.548,363.85L468.354,372.044L484.741,388.432L492.936,380.238L476.548,363.85Z" style="fill:rgb(255,215,0);fill-rule:nonzero;"/>
            <path d="M828.358,277.458L828.358,206.356L797.858,206.356L786.75,236.421L775.673,236.421L771.337,334.48L828.358,277.458Z" style="fill:white;fill-rule:nonzero;"/>
            <path d="M876.377,282.713L876.377,230.347L926.077,230.347L926.077,169.803L909.119,149.944L854.682,149.944L839.843,169.803L839.843,319.247L876.377,282.713Z" style="fill:rgb(255,215,0);fill-rule:nonzero;"/>
            <path d="M941.208,296.737L941.208,241.832L887.862,241.832L887.862,350.082L941.208,296.737Z" style="fill:rgb(255,215,0);fill-rule:nonzero;"/>
            <path d="M926.077,169.803L918.926,161.429L860.995,161.429L851.329,174.761L851.329,307.762L876.377,282.713L876.377,230.347L926.077,230.347L926.077,169.803Z" style="fill:white;fill-rule:nonzero;"/>
            <path d="M782.822,322.993L782.822,245.739L793.417,245.739L804.525,215.673L828.358,215.673L828.358,204.188L795.69,204.188L784.582,234.253L771.337,234.253L771.337,334.48L782.822,322.993Z" style="fill:rgb(255,215,0);fill-rule:nonzero;"/>
            <path d="M246.282,142.331L231.057,142.331L231.057,123.717L222.349,123.717L222.349,167.253L231.057,167.253L231.057,150.663L246.282,150.663L246.282,167.253L254.989,167.253L254.989,123.717L246.282,123.717L246.282,142.331Z" style="fill:white;fill-rule:nonzero;"/>
            <rect x="304.977" y="123.717" width="9.083" height="43.536" style="fill:white;fill-rule:nonzero;"/>
            <path d="M332.532,123.717L323.824,123.717L323.824,167.253L342.686,167.253L345.277,158.921L332.532,158.921L332.532,123.717Z" style="fill:white;fill-rule:nonzero;"/>
            <path d="M359.854,123.717L351.147,123.717L351.147,167.253L370.009,167.253L372.599,158.921L359.854,158.921L359.854,123.717Z" style="fill:white;fill-rule:nonzero;"/>
            <path d="M387.176,158.921L387.176,150.288L401.316,150.288L401.316,141.956L387.176,141.956L387.176,132.049L405.317,132.049L402.726,123.717L378.468,123.717L378.468,167.253L403.079,167.253L405.67,158.921L387.176,158.921Z" style="fill:white;fill-rule:nonzero;"/>
            <path d="M280.277,153.53L270.514,123.717L261.346,123.717L276.141,168.239L284.412,168.239L299.206,123.717L290.038,123.717L280.277,153.53Z" style="fill:white;fill-rule:nonzero;"/>
            <path d="M129.763,150.619L112.767,123.717L105.296,123.717L105.296,167.253L114.004,167.253L114.004,140.351L130.998,167.253L138.47,167.253L138.47,123.717L129.763,123.717L129.763,150.619Z" style="fill:white;fill-rule:nonzero;"/>
            <path d="M203.224,141.322L195.921,141.322C193.478,141.322 191.489,139.143 191.489,136.699C191.489,134.256 193.478,132.08 195.921,132.08L213.459,132.08L210.868,123.748L195.921,123.748C188.676,123.748 182.782,129.454 182.782,136.699C182.782,143.944 188.676,149.648 195.921,149.648L203.224,149.648C205.667,149.648 207.656,151.827 207.656,154.271C207.656,156.713 205.667,158.89 203.224,158.89L184.29,158.89L186.881,167.222L203.224,167.222C210.469,167.222 216.363,161.515 216.363,154.271C216.363,147.026 210.469,141.322 203.224,141.322Z" style="fill:white;fill-rule:nonzero;"/>
            <path d="M304.42,186.753L268.818,186.753L268.818,222.184L240.446,222.184L240.446,186.753L204.844,186.753L204.844,296.699L240.446,296.699L240.446,261.27L268.818,261.27L268.818,296.699L304.42,296.699L304.42,186.753Z" style="fill:white;fill-rule:nonzero;"/>
            <path d="M365.485,267.795L369.336,267.795C391.679,267.795 409.856,249.616 409.856,227.274C409.856,219.587 407.704,212.394 403.972,206.264C396.856,194.575 383.992,186.753 369.336,186.753L329.883,186.753L329.883,296.699L365.485,296.699L365.485,267.795Z" style="fill:white;fill-rule:nonzero;"/>
            <path d="M144.749,267.795C167.092,267.795 185.269,249.616 185.269,227.274C185.269,219.587 183.117,212.394 179.385,206.264C172.269,194.574 159.405,186.753 144.749,186.753L105.297,186.753L105.297,296.699L140.898,296.699L140.898,267.795L144.749,267.795Z" style="fill:white;fill-rule:nonzero;"/>
            <path d="M304.42,200.381L282.445,200.381L282.445,235.811L254.073,235.811L240.446,222.184L240.446,200.381L218.472,200.381L218.472,296.699L240.446,296.699L240.446,261.27L268.818,261.27L282.445,274.897L282.445,296.699L304.42,296.699L304.42,200.381Z" style="fill:rgb(255,215,0);fill-rule:nonzero;"/>
            <path d="M365.485,296.699L365.485,267.795L369.336,267.795C391.679,267.795 409.856,249.616 409.856,227.274C409.856,219.587 407.704,212.394 403.972,206.264C397.842,202.531 390.65,200.38 382.964,200.38L382.964,200.381L343.511,200.381L343.511,296.699L365.485,296.699Z" style="fill:rgb(255,215,0);fill-rule:nonzero;"/>
            <path d="M140.898,296.699L140.898,267.795L144.749,267.795C167.092,267.795 185.269,249.616 185.269,227.274C185.269,219.587 183.117,212.394 179.385,206.264C173.256,202.531 166.063,200.38 158.377,200.38L158.377,200.381L118.924,200.381L118.924,296.699L140.898,296.699Z" style="fill:rgb(255,215,0);fill-rule:nonzero;"/>
            <path d="M181.153,167.253L166.358,122.73L158.087,122.73L143.293,167.253L152.461,167.253L162.222,137.441L167.459,153.432L162.696,153.432L160.016,161.218L170.008,161.218L171.985,167.253L181.153,167.253Z" style="fill:white;fill-rule:nonzero;"/>
        </g>
    </g>
</svg>
