<?xml version="1.0" encoding="UTF-8" standalone="no"?>
<!DOCTYPE svg PUBLIC "-//W3C//DTD SVG 1.1//EN" "http://www.w3.org/Graphics/SVG/1.1/DTD/svg11.dtd">
<svg width="100%" height="100%" viewBox="0 0 1500 500" version="1.1" xmlns="http://www.w3.org/2000/svg" xmlns:xlink="http://www.w3.org/1999/xlink" xml:space="preserve" xmlns:serif="http://www.serif.com/" style="fill-rule:evenodd;clip-rule:evenodd;stroke-linejoin:round;stroke-miterlimit:1.41421;">
    <rect id="Artboard1" x="0" y="0" width="1500" height="500" style="fill:none;"/>
    <clipPath id="_clip1">
        <rect id="Artboard11" serif:id="Artboard1" x="0" y="0" width="1500" height="500"/>
    </clipPath>
    <g clip-path="url(#_clip1)">
        <g>
            <rect x="0" y="0" width="1500" height="500" style="fill:rgb(255,215,0);fill-rule:nonzero;"/>
            <path d="M393.347,393.319L-929.577,1716.24L-268.115,2377.7L1054.81,1054.78L393.347,393.319Z" style="fill:white;fill-rule:nonzero;"/>
            <path d="M393.347,-929.605L-268.115,-268.139L1054.81,1054.78L1716.27,393.319L393.347,-929.605Z" style="fill:rgb(107,17,255);fill-rule:nonzero;"/>
            <path d="M693.205,205.987L681.348,217.846L666.85,203.348L660.067,210.13L693.976,244.038L700.758,237.256L687.837,224.335L699.694,212.477L712.615,225.397L719.397,218.616L685.489,184.708L678.708,191.49L693.205,205.987Z" style="fill:white;fill-rule:nonzero;"/>
            <path d="M758.33,179.683L765.404,172.608L731.496,138.701L724.423,145.775L758.33,179.683Z" style="fill:white;fill-rule:nonzero;"/>
            <path d="M745.884,124.313L739.102,131.096L773.01,165.003L787.7,150.312L783.229,141.806L773.303,151.732L745.884,124.313Z" style="fill:white;fill-rule:nonzero;"/>
            <path d="M767.164,103.033L760.382,109.815L794.29,143.723L808.98,129.032L804.509,120.525L794.582,130.452L767.164,103.033Z" style="fill:white;fill-rule:nonzero;"/>
            <path d="M815.862,109.173L809.139,102.449L820.151,91.437L813.662,84.948L802.649,95.96L794.933,88.244L809.061,74.115L800.555,69.643L781.661,88.537L815.569,122.444L834.737,103.276L830.266,94.769L815.862,109.173Z" style="fill:white;fill-rule:nonzero;"/>
            <path d="M728.404,188.232L697.581,172.616L690.44,179.757L736.641,202.91L743.082,196.469L719.928,150.27L712.787,157.41L728.404,188.232Z" style="fill:white;fill-rule:nonzero;"/>
            <path d="M608.909,303.193L574.72,295.478L568.9,301.297L602.809,335.205L609.591,328.423L588.638,307.47L622.827,315.186L628.646,309.367L594.738,275.459L587.957,282.241L608.909,303.193Z" style="fill:white;fill-rule:nonzero;"/>
            <path d="M658.885,238.737L653.196,244.426C651.293,246.328 648.047,246.18 646.143,244.276C644.24,242.373 644.095,239.13 645.998,237.227L659.657,223.567L651.15,219.096L639.509,230.737C633.866,236.38 633.72,245.415 639.362,251.058C645.005,256.701 654.038,256.552 659.681,250.909L665.368,245.222C667.271,243.318 670.518,243.468 672.421,245.37C674.323,247.272 674.47,250.517 672.566,252.42L657.819,267.166L666.326,271.638L679.056,258.909C684.698,253.267 684.845,244.231 679.202,238.589C673.56,232.946 664.527,233.095 658.885,238.737Z" style="fill:white;fill-rule:nonzero;"/>
            <path d="M773.085,195.305L745.356,223.033L772.951,250.629L750.853,272.726L733.872,255.745L723.259,245.131L695.53,272.859L781.162,358.491L791.775,347.877L808.891,330.763L781.296,303.168L803.393,281.07L830.988,308.665L841.602,298.052L858.717,280.936L783.698,205.919L773.085,195.305Z" style="fill:white;fill-rule:nonzero;"/>
            <path d="M883.765,210.863L886.765,207.864C904.166,190.462 904.165,162.147 886.764,144.745C880.776,138.759 873.498,134.831 865.816,132.964C851.171,129.402 835.06,133.329 823.644,144.744L823.644,144.745L792.917,175.473L878.549,261.104L889.162,250.49L892.444,247.209L906.277,233.376L883.765,210.863Z" style="fill:white;fill-rule:nonzero;"/>
            <path d="M711.845,382.784C729.246,365.382 729.245,337.067 711.844,319.665C705.856,313.679 698.578,309.751 690.896,307.884C676.25,304.322 660.14,308.249 648.725,319.664L648.725,319.665L617.997,350.393L703.629,436.024L714.242,425.41L717.524,422.129L731.357,408.296L708.845,385.783L711.845,382.784Z" style="fill:white;fill-rule:nonzero;"/>
            <path d="M783.698,205.919L766.584,223.033L794.179,250.629L772.081,272.726L750.853,272.726L733.872,255.745L716.758,272.859L791.775,347.877L808.891,330.763L781.296,303.168L803.393,281.07L824.621,281.07L841.602,298.052L858.716,280.936L783.698,205.919Z" style="fill:rgb(255,215,0);fill-rule:nonzero;"/>
            <path d="M906.277,233.376L883.765,210.863L886.765,207.864C904.166,190.462 904.165,162.147 886.764,144.745C880.776,138.759 873.498,134.831 865.816,132.964C858.136,134.831 850.858,138.758 844.872,144.744L844.872,144.745L814.144,175.473L889.163,250.49L892.444,247.209L906.277,233.376Z" style="fill:rgb(255,215,0);fill-rule:nonzero;"/>
            <path d="M731.357,408.296L708.845,385.783L711.845,382.784C729.246,365.382 729.245,337.067 711.844,319.665C705.856,313.679 698.578,309.752 690.896,307.884C683.216,309.752 675.938,313.678 669.952,319.664L669.952,319.665L639.225,350.393L714.242,425.41L717.524,422.129L731.357,408.296Z" style="fill:rgb(255,215,0);fill-rule:nonzero;"/>
            <path d="M661.891,276.124L615.689,252.97L609.248,259.412L632.403,305.611L639.544,298.471L623.927,267.648L640.46,276.024L636.75,279.733L640.727,287.886L648.51,280.103L654.75,283.265L661.891,276.124Z" style="fill:white;fill-rule:nonzero;"/>
        </g>
    </g>
</svg>
