<?xml version="1.0" encoding="UTF-8" standalone="no"?>
<!DOCTYPE svg PUBLIC "-//W3C//DTD SVG 1.1//EN" "http://www.w3.org/Graphics/SVG/1.1/DTD/svg11.dtd">
<svg width="100%" height="100%" viewBox="0 0 2560 1440" version="1.1" xmlns="http://www.w3.org/2000/svg" xmlns:xlink="http://www.w3.org/1999/xlink" xml:space="preserve" xmlns:serif="http://www.serif.com/" style="fill-rule:evenodd;clip-rule:evenodd;stroke-linejoin:round;stroke-miterlimit:1.41421;">
    <rect id="Artboard1" x="0" y="0" width="2560" height="1440" style="fill:none;"/>
    <clipPath id="_clip1">
        <rect id="Artboard11" serif:id="Artboard1" x="0" y="0" width="2560" height="1440"/>
    </clipPath>
    <g clip-path="url(#_clip1)">
        <g>
            <rect x="0" y="0.001" width="2560" height="1440" style="fill:rgb(255,215,0);fill-rule:nonzero;"/>
            <path d="M524.015,927.117L-1685.29,3136.42L-580.639,4241.07L1628.67,2031.76L524.015,927.117Z" style="fill:white;fill-rule:nonzero;"/>
            <path d="M524.015,-1282.19L-580.639,-177.531L1628.67,2031.76L2733.32,927.117L524.015,-1282.19Z" style="fill:rgb(107,17,255);fill-rule:nonzero;"/>
            <path d="M1264.17,625.533L1242.82,625.533L1242.82,599.437L1230.61,599.437L1230.61,660.472L1242.82,660.472L1242.82,637.214L1264.17,637.214L1264.17,660.472L1276.37,660.472L1276.37,599.437L1264.17,599.437L1264.17,625.533Z" style="fill:white;fill-rule:nonzero;"/>
            <rect x="1346.45" y="599.437" width="12.74" height="61.035" style="fill:white;fill-rule:nonzero;"/>
            <path d="M1385.08,599.437L1372.88,599.437L1372.88,660.472L1399.32,660.472L1402.95,648.79L1385.08,648.79L1385.08,599.437Z" style="fill:white;fill-rule:nonzero;"/>
            <path d="M1423.39,599.437L1411.18,599.437L1411.18,660.472L1437.62,660.472L1441.26,648.79L1423.39,648.79L1423.39,599.437Z" style="fill:white;fill-rule:nonzero;"/>
            <path d="M1461.69,648.79L1461.69,636.688L1481.51,636.688L1481.51,625.007L1461.69,625.007L1461.69,611.118L1487.12,611.118L1483.49,599.437L1449.48,599.437L1449.48,660.472L1483.98,660.472L1487.62,648.79L1461.69,648.79Z" style="fill:white;fill-rule:nonzero;"/>
            <path d="M1311.82,641.233L1298.14,599.437L1285.29,599.437L1306.03,661.856L1317.62,661.856L1338.36,599.437L1325.51,599.437L1311.82,641.233Z" style="fill:white;fill-rule:nonzero;"/>
            <path d="M1100.82,637.151L1076.99,599.437L1066.51,599.437L1066.51,660.472L1078.72,660.472L1078.72,622.757L1102.55,660.472L1113.02,660.472L1113.02,599.437L1100.82,599.437L1100.82,637.151Z" style="fill:white;fill-rule:nonzero;"/>
            <path d="M1203.8,624.119L1193.56,624.119C1190.14,624.119 1187.35,621.064 1187.35,617.638C1187.35,614.212 1190.14,611.162 1193.56,611.162L1218.15,611.162L1214.52,599.481L1193.56,599.481C1183.41,599.481 1175.14,607.481 1175.14,617.638C1175.14,627.794 1183.41,635.79 1193.56,635.79L1203.8,635.79C1207.23,635.79 1210.02,638.846 1210.02,642.271C1210.02,645.695 1207.23,648.746 1203.8,648.746L1177.26,648.746L1180.89,660.428L1203.8,660.428C1213.96,660.428 1222.22,652.428 1222.22,642.271C1222.22,632.114 1213.96,624.119 1203.8,624.119Z" style="fill:white;fill-rule:nonzero;"/>
            <path d="M1345.67,687.81L1295.76,687.81L1295.76,737.481L1255.98,737.481L1255.98,687.81L1206.07,687.81L1206.07,841.946L1255.98,841.946L1255.98,792.276L1295.76,792.276L1295.76,841.946L1345.67,841.946L1345.67,687.81Z" style="fill:white;fill-rule:nonzero;"/>
            <path d="M1431.28,801.425L1436.68,801.425C1468,801.425 1493.49,775.941 1493.49,744.616C1493.49,733.841 1490.47,723.756 1485.24,715.161C1475.26,698.776 1457.23,687.809 1436.68,687.809L1436.68,687.81L1381.37,687.81L1381.37,841.946L1431.28,841.946L1431.28,801.425Z" style="fill:white;fill-rule:nonzero;"/>
            <path d="M1121.82,801.425C1153.15,801.424 1178.63,775.941 1178.63,744.616C1178.63,733.841 1175.61,723.756 1170.38,715.161C1160.4,698.775 1142.37,687.809 1121.82,687.809L1121.82,687.81L1066.52,687.81L1066.52,841.946L1116.43,841.946L1116.43,801.424L1121.82,801.425Z" style="fill:white;fill-rule:nonzero;"/>
            <path d="M1345.67,706.914L1314.86,706.914L1314.86,756.585L1275.09,756.585L1255.98,737.481L1255.98,706.914L1225.18,706.914L1225.18,841.946L1255.98,841.946L1255.98,792.276L1295.76,792.276L1314.86,811.381L1314.86,841.946L1345.67,841.946L1345.67,706.914Z" style="fill:rgb(255,215,0);fill-rule:nonzero;"/>
            <path d="M1431.28,841.946L1431.28,801.425L1436.68,801.425C1468,801.425 1493.49,775.941 1493.49,744.616C1493.49,733.841 1490.47,723.756 1485.24,715.161C1476.64,709.93 1466.56,706.914 1455.78,706.914L1400.47,706.914L1400.47,841.946L1431.28,841.946Z" style="fill:rgb(255,215,0);fill-rule:nonzero;"/>
            <path d="M1116.43,841.946L1116.43,801.425L1121.82,801.425C1153.15,801.425 1178.63,775.941 1178.63,744.616C1178.63,733.841 1175.61,723.756 1170.38,715.161C1161.79,709.93 1151.7,706.914 1140.93,706.914L1085.62,706.914L1085.62,841.946L1116.43,841.946Z" style="fill:rgb(255,215,0);fill-rule:nonzero;"/>
            <path d="M1172.86,660.472L1152.12,598.053L1140.52,598.053L1119.78,660.472L1132.64,660.472L1146.32,618.676L1153.66,641.095L1146.99,641.095L1143.23,652.011L1157.24,652.011L1160.01,660.472L1172.86,660.472Z" style="fill:white;fill-rule:nonzero;"/>
        </g>
    </g>
</svg>
